<?xml version="1.0" standalone="no"?>
<!DOCTYPE svg PUBLIC "-//W3C//DTD SVG 20010904//EN"
 "http://www.w3.org/TR/2001/REC-SVG-20010904/DTD/svg10.dtd">
<svg version="1.0" xmlns="http://www.w3.org/2000/svg"
 width="377.000000pt" height="377.000000pt" viewBox="0 0 377.000000 377.000000"
 preserveAspectRatio="xMidYMid meet">
<metadata>
Created by potrace 1.11, written by Peter Selinger 2001-2013
</metadata>
<g transform="translate(0.000000,377.000000) scale(0.100000,-0.100000)"
fill="#000000" stroke="none">
<path d="M290 1890 l0 -1450 290 0 290 0 0 580 0 580 435 0 435 0 0 -580 0
-580 870 0 870 0 0 290 0 290 -580 0 -580 0 0 1160 0 1160 -290 0 -290 0 0
-580 0 -580 -435 0 -435 0 0 580 0 580 -290 0 -290 0 0 -1450z"/>
</g>
</svg>
